# AST/ASF file generated using VICON BodyLanguage
# -----------------------------------------------
:version 1.10
:name VICON
:units
  mass 1.0
  length 0.45
  angle deg
:documentation
   .ast/.asf automatically generated from VICON data using
   VICON BodyBuilder and BodyLanguage model FoxedUp or BRILLIANT.MOD
:root
   order TX TY TZ RX RY RZ
   axis XYZ
   position 0 0 0  
   orientation 0 0 0 
:bonedata
  begin
     id 1 
     name lhipjoint
     direction 0.734343 -0.627749 0.258209 
     length 2.5437 
     axis 0 0 0  XYZ
  end
  begin
     id 2 
     name lfemur
     direction 0.34202 -0.939693 0  
     length 6.7391  
     axis 0 0 20  XYZ
    dof rx ry rz
    limits (-160.0 20.0)
           (-70.0 70.0)
           (-60.0 70.0)
  end
  begin
     id 3 
     name ltibia
     direction 0.34202 -0.939693 0   
     length 7.21536   
     axis 0 0 20   XYZ
    dof rx
    limits (-10.0 170.0)
  end
  begin
     id 4 
     name lfoot
     direction 0.0489572 -0.134509 0.989702   
     length 1.61313   
     axis -90 7.62852e-016 20   XYZ
    dof rx rz
    limits (-45.0 90.0)
           (-70.0 20.0)
  end
  begin
     id 5 
     name ltoes
     direction 1.53451e-011 -4.21692e-011 1   
     length 0.823104   
     axis -90 7.62852e-016 20   XYZ
    dof rx
    limits (-90.0 20.0)
  end
  begin
     id 6 
     name rhipjoint
     direction -0.746398 -0.615468 0.253157   
     length 2.59446  
     axis 0 0 0  XYZ 
  end
  begin
     id 7 
     name rfemur
     direction -0.34202 -0.939693 0   
     length 6.7075   
     axis 0 0 -20   XYZ
    dof rx ry rz
    limits (-160.0 20.0)
           (-70.0 70.0)
           (-70.0 60.0)
  end
  begin
     id 8 
     name rtibia
     direction -0.34202 -0.939693 0   
     length 7.27262   
     axis 0 0 -20   XYZ
    dof rx
    limits (-10.0 170.0)
 end
 begin
     id 9 
     name rfoot
     direction -0.0455203 -0.125066 0.991104   
     length 1.91095  
     axis -90 -7.62852e-016 -20   XYZ
    dof rx rz
    limits (-45.0 90.0)
           (-20.0 70.0)
  end
  begin
     id 10 
     name rtoes
     direction -1.53601e-011 -4.21913e-011 1   
     length 0.969037   
     axis -90 -7.62852e-016 -20   XYZ
    dof rx
    limits (-90.0 20.0)
  end
  begin
     id 11 
     name lowerback
     direction 0.0181546 0.999122 -0.0377542   
     length 1.99916   
     axis 0 0 0   XYZ
    dof rx ry rz
    limits (-20.0 45.0)
           (-30.0 30.0)
           (-30.0 30.0)
  end
  begin
     id 12 
     name upperback
     direction 0.0203486 0.99589 0.0882534   
     length 1.951   
     axis 0 0 0   XYZ
    dof rx ry rz
    limits (-20.0 45.0)
           (-30.0 30.0)
           (-30.0 30.0)
  end
  begin
     id 13 
     name thorax
     direction 0.0131685 0.994241 0.106355   
     length 1.97461   
     axis 0 0 0   XYZ
    dof rx ry rz
    limits (-20.0 45.0)
           (-30.0 30.0)
           (-30.0 30.0)
  end
  begin
     id 14 
     name lowerneck
     direction -0.0281395 0.999325 0.023617   
     length 1.7959   
     axis 0 0 0   XYZ
    dof rx ry rz
    limits (-20.0 45.0)
           (-30.0 30.0)
           (-30.0 30.0)
  end
  begin
     id 15 
     name upperneck
     direction 0.0288721 0.991984 -0.123019   
     length 1.79917   
     axis 0 0 0   XYZ
    dof rx ry rz
    limits (-20.0 45.0)
           (-30.0 30.0)
           (-30.0 30.0)
  end
  begin
     id 16
     name head
     direction 0.0133797 0.998944 -0.0439492  
     length 1.80902  
     axis 0 0 0   XYZ
    dof rx ry rz
    limits (-20.0 45.0)
           (-30.0 30.0)
           (-30.0 30.0)
  end
  begin
     id 17 
     name lclavicle
     direction 0.919195 0.377107 0.113449  
     length 3.17815  
     axis 0 0 0   XYZ
    dof ry rz
    limits (-20.0 10.0)
           (0.0 20.0)
  end
  begin
     id 18 
     name lhumerus
     direction 1 -4.48959e-011 2.13129e-027   
     length 4.84137   
     axis 180 -30 -90   XYZ
    dof rx ry rz
    limits (-60.0 90.0)
           (-90.0 90.0)
           (-90.0 90.0)
  end
  begin
     id 19
     name lradius
     direction 1 -4.48957e-011 -6.30627e-028   
     length 3.2452   
     axis 180 -30 -90   XYZ
    dof rx
    limits (-10.0 170.0)
  end
  begin
     id 20
     name lwrist
     direction 1 -4.4901e-011 9.13299e-027   
     length 1.6226   
     axis -6.84618e-015 90 90   XYZ
    dof ry
    limits (-180.0 0.0)
 end
  begin
     id 21 
     name lhand
     direction 1 -4.48816e-011 1.82293e-026   
     length 0.521221   
     axis -1.16502e-014 90 90   XYZ
    dof rx rz
    limits (-90.0 90.0)
           (-45.0 45.0)
  end
  begin
     id 22 
     name lfingers
     direction 1 -4.49108e-011 3.65687e-026   
     length 0.420221   
     axis -2.33008e-014 90 90   XYZ
    dof rx
    limits (0.0 90.0)
  end
  begin
     id 23
     name lthumb
     direction 0.707107 -6.34943e-011 0.707107   
     length 0.603356   
     axis -90 45 5.69224e-014   XYZ
    dof rx rz
    limits (-45.0 45.0)
           (-45.0 45.0)
  end
  begin
     id 24 
     name rclavicle
     direction -0.90847 0.38596 0.160368   
     length 3.12973  
     axis 0 0 0   XYZ 
    dof ry rz
    limits (-10.0 20.0)
           (-20.0 0.0)
  end
  begin
     id 25 
     name rhumerus
     direction -1 -4.48974e-011 4.47268e-028  
     length 4.72284   
     axis 180 30 90   XYZ
    dof rx ry rz
    limits (-90.0 60.0)
           (-90.0 90.0)
           (-90.0 90.0)
  end
  begin
     id 26 
     name rradius
     direction -1 -4.48969e-011 3.43203e-027   
     length 3.23459   
     axis 180 30 90   XYZ
    dof rx
    limits (-10.0 170.0)
  end
  begin
     id 27 
     name rwrist
     direction -1 -4.48969e-011 9.12911e-027   
     length 1.6173   
     axis -6.84618e-015 -90 -90   XYZ
    dof ry
    limits (-180.0 0.0)
  end
  begin
     id 28
     name rhand
     direction -1 -4.49194e-011 1.83006e-026   
     length 0.307416   
     axis -1.16502e-014 -90 -90   XYZ
    dof rx rz
    limits (-90.0 90.0)
           (-45.0 45.0)
  end
  begin
     id 29
     name rfingers
     direction -1 -4.48423e-011 3.63103e-026   
     length 0.247847   
     axis -2.33008e-014 -90 -90   XYZ
    dof rx
    limits (0.0 90.0)
  end
  begin
     id 30
     name rthumb
     direction -0.707107 -6.34802e-011 0.707107   
     length 0.35586   
     axis -90 -45 -5.69224e-014   XYZ
    dof rx rz
    limits (-45.0 45.0)
           (-45.0 45.0)
  end
:hierarchy
  begin
    root lhipjoint rhipjoint lowerback
    lhipjoint lfemur
    lfemur ltibia
    ltibia lfoot
    lfoot ltoes
    rhipjoint rfemur
    rfemur rtibia
    rtibia rfoot
    rfoot rtoes
    lowerback upperback
    upperback thorax
    thorax lowerneck lclavicle rclavicle
    lowerneck upperneck
    upperneck head
    lclavicle lhumerus
    lhumerus lradius
    lradius lwrist
    lwrist lhand lthumb
    lhand lfingers
    rclavicle rhumerus
    rhumerus rradius
    rradius rwrist
    rwrist rhand rthumb
    rhand rfingers
  end

#!OML:ASF H:\Terrain\Patient Classification 1\Animal1\Tuesday\Animal1.ASF
:FULLY-SPECIFIED
:DEGREES
242
root 11.1728 13.4033 -17.147 24.7299 -1.75845 0.533734
lowerback 21.3188 -0.782491 0.73715
upperback 8.37549 -0.796822 1.50458
thorax -2.79636 -0.406061 1.36929
lowerneck -8.32718 1.12462 -3.01847
upperneck -25.5853 2.24483 3.00234
head -6.53622 1.15918 1.42979
rclavicle -1.66979e-014 6.16232e-015
rhumerus -9.6989 25.8635 17.7187
rradius 33.2941
rwrist -45.7109
rhand 3.25367 10.4917
rfingers 7.12502
rthumb 28.7029 -17.3227
lclavicle -1.66979e-014 6.16232e-015
lhumerus -18.9054 -42.4759 -2.06467
lradius 43.1461
lwrist 7.64815
lhand 9.51762 47.7401
lfingers 7.12502
lthumb 34.6687 74.3729
rfemur -78.0509 -11.2495 17.4684
rtibia 76.245
rfoot -18.0975 -13.7437
rtoes -14.7382
lfemur -74.8026 15.0252 -15.8086
ltibia 75.0632
lfoot -26.6899 -8.33225
ltoes -18.0296
243
root 11.1738 13.4147 -17.1452 24.7686 -1.87919 0.72993
lowerback 21.1428 -0.659158 0.549686
upperback 8.30239 -0.671117 1.62675
thorax -2.78505 -0.34964 1.57533
lowerneck -7.58369 0.958445 -3.69874
upperneck -25.4399 2.07566 3.37835
head -6.61075 1.10658 1.66874
rclavicle -1.49089e-014 2.08724e-014
rhumerus -9.48667 26.5246 18.0511
rradius 34.6663
rwrist -46.9297
rhand 5.84524 8.21707
rfingers 7.12502
rthumb 31.1758 -19.1507
lclavicle -1.49089e-014 2.08724e-014
lhumerus -18.9076 -43.566 -1.33303
lradius 44.4512
lwrist 8.14123
lhand 10.1853 47.1414
lfingers 7.12502
lthumb 35.3021 73.6264
rfemur -78.0454 -11.2507 17.2402
rtibia 76.1328
rfoot -18.1078 -13.6831
rtoes -15.5367
lfemur -74.6799 14.9541 -16.0231
ltibia 74.8413
lfoot -26.6128 -8.23706
ltoes -17.8076
244
root 11.1735 13.4234 -17.1454 24.7907 -2.00155 0.963211
lowerback 20.8717 -0.785495 0.105449
upperback 8.58929 -0.930265 1.49727
thorax -2.32772 -0.485334 1.74045
lowerneck -8.02745 1.17284 -3.34202
upperneck -25.0424 2.37406 3.38557
head -6.41499 1.22408 1.6012
rclavicle 1.05356e-014 -2.06736e-014
rhumerus -8.92746 26.8371 17.7048
rradius 36.1001
rwrist -48.1227
rhand 6.68236 7.63444
rfingers 7.12502
rthumb 31.9733 -19.5769
lclavicle 1.05356e-014 -2.06736e-014
lhumerus -19.464 -45.1632 -1.36514
lradius 46.1513
lwrist 10.0148
lhand 10.7375 46.8746
lfingers 7.12502
lthumb 35.8255 73.2338
rfemur -77.9416 -11.163 16.8709
rtibia 75.9968
rfoot -18.0514 -13.9
rtoes -16.302
lfemur -74.5611 14.8893 -16.2929
ltibia 74.6236
lfoot -26.5039 -8.18299
ltoes -17.4714
245
root 11.1717 13.4391 -17.1471 24.6891 -2.04063 1.16862
lowerback 20.6603 -0.843875 -0.136673
upperback 8.88197 -1.05852 1.40762
thorax -1.89883 -0.555446 1.80297
lowerneck -8.07226 1.22499 -3.14969
upperneck -24.9235 2.44351 3.40204
head -6.36881 1.23991 1.57131
rclavicle -1.31198e-014 1.80894e-014
rhumerus -8.83048 27.7663 17.3937
rradius 37.616
rwrist -49.616
rhand 6.72233 9.09985
rfingers 7.12502
rthumb 32.0113 -18.1038
lclavicle -1.31198e-014 1.80894e-014
lhumerus -20.2151 -45.7015 -0.661735
lradius 47.8278
lwrist 10.931
lhand 11.2035 46.5092
lfingers 7.12502
lthumb 36.2669 72.7597
rfemur -77.7103 -11.1313 16.5632
rtibia 75.8449
rfoot -17.9453 -14.078
rtoes -16.2354
lfemur -74.2817 14.7351 -16.4629
ltibia 74.401
lfoot -26.4451 -7.96529
ltoes -17.7799
246
root 11.1692 13.4509 -17.1507 24.6326 -2.14183 1.30056
lowerback 20.448 -0.79549 -0.336644
upperback 9.10589 -1.03647 1.41629
thorax -1.54671 -0.553413 1.91412
lowerneck -7.95583 1.17658 -3.24835
upperneck -24.9513 2.39339 3.49527
head -6.39651 1.21623 1.61937
rclavicle 6.55989e-015 -8.94531e-015
rhumerus -8.79618 28.8241 17.2112
rradius 39.0889
rwrist -51.3582
rhand 6.83738 10.4589
rfingers 7.12502
rthumb 32.1209 -16.7228
lclavicle 6.55989e-015 -8.94531e-015
lhumerus -19.8463 -47.388 -0.785545
lradius 49.5365
lwrist 13.1801
lhand 11.5986 46.1977
lfingers 7.12502
lthumb 36.6409 72.3542
rfemur -77.613 -11.0199 16.3551
rtibia 75.6904
rfoot -17.8137 -13.9988
rtoes -17.2101
lfemur -74.0921 14.6976 -16.5957
ltibia 74.2308
lfoot -26.4849 -7.48807
ltoes -19.0517
247
root 11.1668 13.4562 -17.1546 24.6294 -2.13694 1.10715
lowerback 20.3523 -0.783064 -0.214553
upperback 9.20774 -0.997954 1.51222
thorax -1.39011 -0.535432 1.93565
lowerneck -7.8767 1.14739 -3.34865
upperneck -24.7839 2.37669 3.64495
head -6.35541 1.2063 1.68428
rclavicle 1.98785e-016 -1.49089e-014
rhumerus -8.62469 29.7843 17.0444
rradius 40.4806
rwrist -53.1901
rhand 7.05346 11.2936
rfingers 7.12502
rthumb 32.3266 -15.8463
lclavicle 1.98785e-016 -1.49089e-014
lhumerus -20.0358 -48.128 -0.11174
lradius 51.0222
lwrist 13.9913
lhand 11.6722 45.4014
lfingers 7.12502
lthumb 36.7106 71.5401
rfemur -77.5338 -10.854 16.545
rtibia 75.5164
rfoot -17.7257 -13.9036
rtoes -18.0523
lfemur -74.0744 14.7954 -16.3772
ltibia 74.1521
lfoot -26.4544 -7.35418
ltoes -19.5677
248
root 11.1634 13.4658 -17.1555 24.557 -1.94527 0.580298
lowerback 20.4876 -0.860723 0.288616
upperback 9.24437 -1.00226 1.67034
thorax -1.42427 -0.52808 1.8213
lowerneck -7.78088 1.12222 -3.35184
upperneck -24.4416 2.35405 3.7833
head -6.25817 1.18563 1.72777
rclavicle 3.97569e-016 -1.19271e-015
rhumerus -8.23051 30.7876 16.955
rradius 41.7771
rwrist -55.3134
rhand 7.95241 11.8186
rfingers 7.12502
rthumb 33.1818 -15.1431
lclavicle 3.97569e-016 -1.19271e-015
lhumerus -20.2817 -49.1536 0.389258
lradius 52.6507
lwrist 14.9241
lhand 11.2994 44.7036
lfingers 7.12502
lthumb 36.3577 70.9314
rfemur -77.2383 -10.6998 17.1388
rtibia 75.2906
rfoot -17.7328 -13.8473
rtoes -17.456
lfemur -74.0007 14.8734 -15.6972
ltibia 74.1135
lfoot -26.3362 -7.54781
ltoes -19.2555
